<?xml version="1.0" encoding="UTF-8"?>
<svg id="Layer_1" data-name="Layer 1" xmlns="http://www.w3.org/2000/svg" viewBox="0 0 334.9 331.89">
  <defs>
    <style>
      .cls-1, .cls-2 {
        fill: none;
      }

      .cls-2 {
        stroke: #61cae5;
        stroke-miterlimit: 10;
        stroke-width: 5px;
      }
    </style>
  </defs>
  <rect class="cls-1" x="37.45" y="40.82" width="260" height="260" rx="26" ry="26"/>
  <path class="cls-2" d="M147.56,199.2c0,34.13,27.67,62.8,61.8,62.8s61.8-27.67,61.8-61.8-27.67-61.8-61.8-61.8c-8.25,0-15.49,1.37-22.68,4.31"/>
  <path class="cls-2" d="M187.34,141.44c0,26.37-16.52,48.89-39.77,57.76-6.84,2.61-14.26,4.04-22.02,4.04-34.13,0-61.8-27.67-61.8-61.8s27.67-61.8,61.8-61.8,61.8,27.67,61.8,61.8Z"/>
  <polygon class="cls-2" points="170.77 130.79 170.77 152.09 136.19 152.09 136.19 186.67 114.9 186.67 114.9 152.09 80.31 152.09 80.31 130.79 114.9 130.79 114.9 96.2 136.19 96.2 136.19 130.79 170.77 130.79"/>
  <rect class="cls-2" x="198.61" y="171.31" width="21.5" height="57.79" transform="translate(9.15 409.56) rotate(-90)"/>
</svg>